<?xml version="1.0" standalone="no"?>

<svg version="1.0" xmlns="http://www.w3.org/2000/svg"
 width="217.000000pt" height="217.000000pt" viewBox="0 0 217.000000 217.000000"
 preserveAspectRatio="xMidYMid meet">

<g transform="translate(0.000000,217.000000) scale(0.100000,-0.100000)"
fill="#ffffff" stroke="none">
<path d="M1044 2116 c-28 -31 -66 -83 -85 -115 l-34 -58 -60 42 c-69 48 -141
90 -170 99 -17 5 -23 0 -32 -26 -18 -53 -42 -149 -48 -199 l-6 -45 -67 17
c-37 9 -99 18 -137 20 l-70 4 2 -79 c2 -44 10 -106 19 -138 9 -32 15 -61 12
-64 -3 -2 -33 -9 -66 -14 -77 -13 -189 -47 -198 -61 -8 -14 47 -119 99 -188
27 -36 36 -56 28 -59 -26 -9 -157 -101 -185 -131 -29 -30 -29 -31 -10 -52 30
-33 127 -106 168 -125 20 -10 36 -20 36 -24 0 -3 -17 -28 -37 -56 -50 -65
-106 -172 -100 -188 6 -15 133 -53 210 -62 31 -4 57 -10 57 -14 0 -4 -7 -29
-15 -55 -8 -27 -17 -86 -21 -132 -7 -92 -12 -86 66 -83 41 1 142 20 198 36 19
6 22 3 22 -24 0 -33 44 -212 58 -237 7 -14 19 -11 86 24 43 22 97 56 121 75
l42 35 26 -47 c34 -61 113 -161 134 -169 21 -8 88 66 142 154 l37 62 55 -40
c30 -23 85 -57 122 -75 l68 -35 13 33 c18 42 42 139 51 200 l6 47 47 -15 c26
-8 89 -18 141 -21 l94 -6 -7 79 c-4 43 -14 105 -23 137 -18 67 -13 77 43 77
38 0 192 44 208 60 13 13 -36 111 -97 191 -21 28 -37 52 -35 53 2 2 30 19 63
39 33 20 83 56 110 81 l50 46 -55 51 c-30 28 -79 64 -107 81 -29 16 -55 33
-58 38 -2 4 12 30 33 57 20 28 53 80 72 117 34 64 34 68 16 81 -22 16 -180 55
-225 55 -36 0 -35 -2 -16 70 8 30 18 92 21 138 6 71 5 82 -9 82 -37 0 -176
-22 -221 -36 -27 -8 -50 -14 -51 -14 -1 0 -5 26 -9 58 -7 64 -53 222 -64 222
-16 0 -160 -84 -198 -115 l-41 -34 -35 62 c-20 34 -58 86 -85 116 l-49 54 -50
-57z m133 -173 c20 -38 25 -57 18 -66 -5 -8 -30 -44 -55 -80 -25 -37 -47 -66
-50 -66 -3 0 -27 34 -54 75 -55 86 -55 88 18 197 l39 60 28 -34 c16 -19 41
-58 56 -86z m301 -5 c6 -29 14 -76 18 -103 l6 -50 -85 -56 -85 -55 -6 58 c-4
32 -13 76 -21 97 l-13 39 41 33 c43 36 118 87 128 88 3 1 11 -23 17 -51z
m-705 17 c23 -14 59 -39 80 -57 l38 -33 -15 -65 c-9 -36 -16 -77 -16 -92 0
-16 -3 -28 -6 -28 -4 0 -28 15 -54 34 -26 19 -62 42 -79 50 -27 15 -31 21 -31
59 1 59 23 157 35 157 4 0 25 -11 48 -25z m253 -268 l27 -52 -19 -78 -19 -78
-43 61 c-47 68 -51 100 -31 203 l12 57 23 -31 c12 -17 35 -54 50 -82z m231 -8
l6 -75 -46 -62 c-45 -61 -57 -67 -57 -27 0 13 -7 41 -15 64 -14 41 -13 45 11
94 15 28 38 69 52 90 25 38 26 38 35 15 5 -12 11 -57 14 -99z m-708 71 l56
-16 16 -80 c8 -44 18 -88 22 -98 6 -16 3 -18 -20 -12 -16 3 -60 11 -99 17
l-71 12 -16 51 c-9 28 -19 74 -23 103 l-6 51 43 -5 c23 -4 68 -14 98 -23z
m1226 -22 c-4 -28 -15 -74 -24 -102 l-18 -50 -69 -12 c-38 -6 -82 -15 -98 -19
-25 -7 -27 -5 -22 11 13 45 26 111 26 141 0 29 4 33 50 48 41 14 97 26 153 34
5 0 6 -22 2 -51z m-961 -123 c37 -34 46 -48 46 -76 0 -19 4 -50 10 -68 5 -19
8 -36 6 -38 -2 -2 -35 16 -73 41 -67 43 -71 48 -86 103 -8 32 -19 73 -22 92
l-7 33 40 -22 c22 -13 61 -42 86 -65z m673 41 c-11 -82 -44 -151 -80 -169 -17
-9 -46 -25 -63 -36 l-30 -21 9 53 c18 107 19 108 92 164 38 29 72 53 74 53 2
0 1 -20 -2 -44z m203 -165 c-5 -11 -33 -48 -61 -83 -49 -62 -52 -63 -117 -75
-37 -6 -73 -12 -80 -12 -7 -1 3 22 22 49 19 28 37 59 41 69 5 17 100 52 175
64 14 2 26 5 28 6 1 0 -2 -8 -8 -18z m249 -3 l51 -11 -27 -46 c-14 -25 -42
-65 -61 -87 l-34 -41 -42 12 c-22 7 -64 16 -93 20 l-52 7 44 63 c24 35 46 74
50 86 7 20 12 21 60 15 30 -3 76 -11 104 -18z m-1481 -68 c41 -65 48 -80 33
-80 -10 0 -53 -9 -96 -20 l-79 -20 -24 27 c-41 49 -94 134 -87 141 13 14 91
30 145 31 l56 1 52 -80z m168 49 c58 -18 63 -22 98 -81 20 -33 35 -62 34 -63
-2 -2 -35 3 -75 10 -63 11 -75 17 -105 50 -45 52 -78 97 -78 108 0 10 39 3
126 -24z m471 -121 c-2 -24 -4 -5 -4 42 0 47 2 66 4 43 2 -24 2 -62 0 -85z
m-97 3 c11 -29 19 -55 17 -58 -4 -4 -57 109 -57 123 0 18 20 -14 40 -65z m209
10 c-12 -28 -24 -50 -26 -48 -2 2 6 27 18 56 12 28 24 50 26 48 2 -2 -6 -27
-18 -56z m116 -35 c-14 -19 -38 -42 -53 -52 -17 -10 -8 3 23 35 27 28 51 51
53 51 1 0 -9 -15 -23 -34z m-427 -21 c22 -18 48 -55 39 -55 -1 0 -25 23 -52
52 -47 49 -40 50 13 3z m-254 -82 l65 -47 -75 -18 -76 -18 -67 35 c-74 40
-107 63 -100 69 5 6 119 23 161 25 18 1 50 -15 92 -46z m1076 36 c35 -5 67
-12 69 -15 8 -8 -22 -31 -89 -67 l-65 -35 -67 17 c-80 21 -87 26 -56 42 12 7
39 25 58 41 38 31 54 33 150 17z m-335 -44 c-27 -13 -61 -26 -75 -29 -22 -6
-22 -5 5 10 34 20 95 43 110 43 6 0 -12 -11 -40 -24z m-555 0 c14 -8 21 -14
15 -14 -5 0 -21 6 -35 14 -14 8 -20 14 -15 14 6 0 21 -6 35 -14z m-487 -38
c23 -19 59 -44 80 -56 l37 -23 -80 -54 c-70 -47 -84 -53 -103 -43 -35 17 -147
93 -147 100 0 11 149 108 168 109 2 0 22 -15 45 -33z m1606 3 c31 -17 70 -42
86 -55 l30 -25 -30 -25 c-16 -13 -56 -38 -88 -56 l-59 -31 -26 25 c-15 14 -47
38 -73 53 -25 16 -46 33 -47 37 -2 6 134 106 147 107 2 0 29 -14 60 -30z
m-1059 10 c8 -5 11 -10 5 -10 -5 0 -17 5 -25 10 -8 5 -10 10 -5 10 6 0 17 -5
25 -10z m-35 -90 c14 -6 4 -9 -38 -9 -36 -1 -56 3 -52 9 7 12 62 12 90 0z
m570 1 c-11 -4 -42 -5 -70 -1 -49 7 -49 7 20 8 44 0 62 -2 50 -7z m-782 -64
c31 -7 57 -15 57 -19 0 -5 -3 -8 -7 -8 -5 0 -32 -18 -60 -40 l-53 -39 -87 10
c-49 6 -90 12 -92 14 -15 15 145 108 169 99 8 -3 41 -11 73 -17z m1090 -28
c41 -24 65 -45 60 -50 -5 -5 -46 -14 -91 -21 -82 -11 -82 -11 -120 16 -20 16
-53 38 -71 49 l-35 21 65 17 c82 22 109 17 192 -32z m-878 -13 c-76 -35 -108
-40 -40 -6 33 16 67 29 75 29 8 0 -7 -11 -35 -23z m520 -6 c22 -10 33 -19 25
-19 -8 0 -31 8 -50 19 -45 24 -28 24 25 0z m-70 -92 c39 -40 43 -46 18 -29
-27 18 -82 81 -71 81 2 0 26 -23 53 -52z m-405 -3 c-44 -45 -50 -50 -50 -40 0
11 73 85 83 85 6 0 -9 -20 -33 -45z m299 -29 c10 -24 22 -55 26 -68 7 -22 6
-22 -8 -3 -7 11 -19 34 -24 50 -6 17 -14 38 -18 48 -16 38 5 14 24 -27z m-753
3 l62 -11 -56 -84 -56 -85 -46 6 c-25 4 -69 11 -98 17 l-52 11 27 46 c14 25
42 65 60 88 32 39 36 41 66 32 18 -5 60 -14 93 -20z m1465 -11 c43 -53 83
-117 76 -124 -11 -12 -115 -34 -159 -34 -45 0 -47 2 -74 48 -15 26 -38 61 -51
78 l-24 32 68 12 c37 7 77 16 88 21 34 13 40 10 76 -33z m-922 -27 c-12 -28
-24 -50 -26 -47 -2 2 6 27 18 55 12 29 23 50 25 48 3 -2 -5 -27 -17 -56z m108
-63 c-2 -24 -4 -5 -4 42 0 47 2 66 4 43 2 -24 2 -62 0 -85z m-339 105 c-27
-62 -75 -126 -103 -137 -45 -19 -144 -41 -151 -33 -7 7 25 56 75 112 30 34 44
42 96 51 78 15 87 16 83 7z m767 -9 c38 -5 56 -14 78 -38 32 -37 87 -112 87
-120 0 -8 -34 -1 -120 24 -62 18 -67 22 -100 77 -46 76 -46 77 -19 70 13 -3
47 -9 74 -13z m-662 -164 c-5 -50 -12 -70 -36 -97 -29 -32 -108 -93 -122 -93
-10 0 5 79 26 135 16 42 27 55 68 78 28 15 53 32 57 38 12 20 14 2 7 -61z
m520 31 c32 -18 64 -46 72 -62 16 -29 49 -159 42 -165 -6 -6 -100 62 -131 94
-21 23 -31 47 -40 101 -7 39 -10 70 -7 69 3 -2 32 -18 64 -37z m-349 -73 c4
-24 10 -57 13 -74 5 -32 -15 -82 -65 -157 -25 -38 -26 -38 -34 -16 -5 13 -12
57 -15 99 l-6 76 44 61 c24 33 47 59 50 57 4 -2 10 -23 13 -46z m191 -17 c37
-54 38 -56 32 -126 -4 -40 -10 -82 -15 -95 l-9 -23 -20 29 c-11 16 -32 53 -47
82 l-27 53 18 74 c9 41 20 72 23 67 4 -4 24 -31 45 -61z m436 -11 l76 -12 16
-52 c9 -28 19 -74 23 -102 l6 -52 -53 10 c-30 5 -75 16 -101 24 -45 15 -47 17
-53 62 -7 47 -21 111 -32 138 -4 11 0 13 19 5 13 -5 58 -14 99 -21z m-1011 18
c0 -2 -7 -28 -15 -58 -8 -30 -15 -72 -15 -92 0 -35 -2 -37 -47 -52 -27 -8 -74
-19 -106 -24 l-58 -9 6 50 c4 28 15 73 25 101 l17 51 73 12 c40 7 75 15 78 18
5 5 42 7 42 3z m226 -250 l17 -76 -38 -34 c-21 -18 -59 -45 -85 -60 l-47 -28
-11 53 c-7 28 -15 77 -18 107 l-6 55 43 22 c24 11 62 35 84 51 39 30 40 30 42
9 2 -12 10 -56 19 -99z m545 60 c77 -51 79 -54 79 -93 0 -38 -23 -141 -34
-152 -5 -5 -95 52 -139 89 l-29 23 16 62 c9 33 16 75 16 92 0 17 3 31 6 31 3
0 41 -24 85 -52z m-279 -56 c21 -31 43 -65 50 -75 11 -15 8 -27 -20 -80 -18
-34 -43 -75 -56 -90 l-23 -29 -52 77 c-54 81 -61 105 -36 125 9 7 32 39 52 71
20 33 39 59 42 59 3 0 23 -26 43 -58z"/>
</g>
</svg>
